{
    "asset" : {
        "generator" : "Khronos glTF Blender I/O v3.4.50",
        "version" : "2.0"
    },
    "extensionsUsed" : [
        "KHR_materials_specular",
        "KHR_materials_ior"
    ],
    "scene" : 0,
    "scenes" : [
        {
            "name" : "Scene",
            "nodes" : [
                0,
                1,
                2,
                3,
                4,
                5,
                6,
                7
            ]
        }
    ],
    "nodes" : [
        {
            "mesh" : 0,
            "name" : "Cube.033",
            "scale" : [
                0.8560349941253662,
                0.8560349941253662,
                0.8560349941253662
            ],
            "translation" : [
                -0.0367998331785202,
                -1.5147157907485962,
                0.06773820519447327
            ]
        },
        {
            "mesh" : 1,
            "name" : "Cube.034",
            "scale" : [
                0.8560349941253662,
                0.8560349941253662,
                0.8560349941253662
            ],
            "translation" : [
                -0.0367998331785202,
                -1.254409909248352,
                0.06773820519447327
            ]
        },
        {
            "mesh" : 2,
            "name" : "Cube.035",
            "scale" : [
                0.8560349941253662,
                0.8560349941253662,
                0.8560349941253662
            ],
            "translation" : [
                -0.0367998331785202,
                -1.5147157907485962,
                0.01723778247833252
            ]
        },
        {
            "mesh" : 3,
            "name" : "Cube.036",
            "scale" : [
                0.8560349941253662,
                0.8560349941253662,
                0.8560349941253662
            ],
            "translation" : [
                -0.0367998331785202,
                -1.5147157907485962,
                0.06773820519447327
            ]
        },
        {
            "mesh" : 4,
            "name" : "Plane.010",
            "rotation" : [
                0.6837971210479736,
                -0.18005973100662231,
                0.1800597459077835,
                0.6837970614433289
            ],
            "scale" : [
                0.6993581056594849,
                0.6993581056594849,
                0.6993581056594849
            ],
            "translation" : [
                0.24587738513946533,
                0.7085719108581543,
                0.3656727075576782
            ]
        },
        {
            "mesh" : 5,
            "name" : "Plane.011",
            "rotation" : [
                0.6837971210479736,
                -0.18005973100662231,
                0.1800597459077835,
                0.6837970614433289
            ],
            "scale" : [
                0.6993581056594849,
                0.6993581056594849,
                0.6993581056594849
            ],
            "translation" : [
                -0.03305178880691528,
                0.7085719108581543,
                0.3656727075576782
            ]
        },
        {
            "mesh" : 6,
            "name" : "Cube.037",
            "scale" : [
                0.8560349941253662,
                0.8560349941253662,
                0.8560349941253662
            ],
            "translation" : [
                -0.0367998331785202,
                -1.5147157907485962,
                0.06773820519447327
            ]
        },
        {
            "mesh" : 7,
            "name" : "Plane.012",
            "rotation" : [
                0.4391578137874603,
                0.5542025566101074,
                -0.5542024970054626,
                0.4391578435897827
            ],
            "scale" : [
                0.1484634429216385,
                0.10720450431108475,
                0.1484633833169937
            ],
            "translation" : [
                0.31145066022872925,
                -0.21978522837162018,
                0.4412974715232849
            ]
        }
    ],
    "materials" : [
        {
            "doubleSided" : true,
            "name" : "Wood.005",
            "pbrMetallicRoughness" : {
                "baseColorFactor" : [
                    1,
                    0.10384489595890045,
                    0.026218263432383537,
                    1
                ],
                "metallicFactor" : 0,
                "roughnessFactor" : 0.25
            }
        },
        {
            "doubleSided" : true,
            "extensions" : {
                "KHR_materials_specular" : {
                    "specularColorFactor" : [
                        2.371357614441398,
                        2.371357614441398,
                        2.371357614441398
                    ]
                },
                "KHR_materials_ior" : {
                    "ior" : 1.4500000476837158
                }
            },
            "name" : "Metal",
            "pbrMetallicRoughness" : {
                "baseColorFactor" : [
                    0.2202489972114563,
                    0.2202489972114563,
                    0.2202489972114563,
                    1
                ],
                "roughnessFactor" : 0.4000000059604645
            }
        },
        {
            "doubleSided" : true,
            "name" : "Green.001",
            "pbrMetallicRoughness" : {
                "baseColorFactor" : [
                    0.17322370409965515,
                    0.8000000715255737,
                    0,
                    1
                ],
                "metallicFactor" : 0,
                "roughnessFactor" : 0.5
            }
        }
    ],
    "meshes" : [
        {
            "name" : "Cube.033",
            "primitives" : [
                {
                    "attributes" : {
                        "POSITION" : 0,
                        "TEXCOORD_0" : 1,
                        "NORMAL" : 2
                    },
                    "indices" : 3,
                    "material" : 0
                }
            ]
        },
        {
            "name" : "Mesh",
            "primitives" : [
                {
                    "attributes" : {
                        "POSITION" : 4,
                        "TEXCOORD_0" : 5,
                        "NORMAL" : 6
                    },
                    "indices" : 7,
                    "material" : 0
                }
            ]
        },
        {
            "name" : "Cube.037",
            "primitives" : [
                {
                    "attributes" : {
                        "POSITION" : 8,
                        "TEXCOORD_0" : 9,
                        "NORMAL" : 10
                    },
                    "indices" : 11,
                    "material" : 0
                }
            ]
        },
        {
            "name" : "Cube.038",
            "primitives" : [
                {
                    "attributes" : {
                        "POSITION" : 12,
                        "TEXCOORD_0" : 13,
                        "NORMAL" : 14
                    },
                    "indices" : 15,
                    "material" : 0
                }
            ]
        },
        {
            "name" : "Mesh",
            "primitives" : [
                {
                    "attributes" : {
                        "POSITION" : 16,
                        "NORMAL" : 17
                    },
                    "indices" : 18,
                    "material" : 1
                }
            ]
        },
        {
            "name" : "Mesh",
            "primitives" : [
                {
                    "attributes" : {
                        "POSITION" : 19,
                        "NORMAL" : 20
                    },
                    "indices" : 18,
                    "material" : 1
                }
            ]
        },
        {
            "name" : "Cube.039",
            "primitives" : [
                {
                    "attributes" : {
                        "POSITION" : 21,
                        "TEXCOORD_0" : 22,
                        "NORMAL" : 23
                    },
                    "indices" : 24
                }
            ]
        },
        {
            "name" : "Mesh",
            "primitives" : [
                {
                    "attributes" : {
                        "POSITION" : 25,
                        "TEXCOORD_0" : 26,
                        "NORMAL" : 27
                    },
                    "indices" : 28,
                    "material" : 2
                },
                {
                    "attributes" : {
                        "POSITION" : 29,
                        "TEXCOORD_0" : 30,
                        "NORMAL" : 31
                    },
                    "indices" : 32,
                    "material" : 1
                }
            ]
        }
    ],
    "accessors" : [
        {
            "bufferView" : 0,
            "componentType" : 5126,
            "count" : 2334,
            "max" : [
                1,
                3.309027910232544,
                0.7696790099143982
            ],
            "min" : [
                -1,
                0.4841803312301636,
                -0.7696791291236877
            ],
            "type" : "VEC3"
        },
        {
            "bufferView" : 1,
            "componentType" : 5126,
            "count" : 2334,
            "type" : "VEC2"
        },
        {
            "bufferView" : 2,
            "componentType" : 5126,
            "count" : 2334,
            "type" : "VEC3"
        },
        {
            "bufferView" : 3,
            "componentType" : 5123,
            "count" : 13080,
            "type" : "SCALAR"
        },
        {
            "bufferView" : 4,
            "componentType" : 5126,
            "count" : 14823,
            "max" : [
                0.7656874060630798,
                0.34545114636421204,
                0.6652458310127258
            ],
            "min" : [
                -0.7656873464584351,
                0.0578436516225338,
                -0.6652458906173706
            ],
            "type" : "VEC3"
        },
        {
            "bufferView" : 5,
            "componentType" : 5126,
            "count" : 14823,
            "type" : "VEC2"
        },
        {
            "bufferView" : 6,
            "componentType" : 5126,
            "count" : 14823,
            "type" : "VEC3"
        },
        {
            "bufferView" : 7,
            "componentType" : 5123,
            "count" : 86016,
            "type" : "SCALAR"
        },
        {
            "bufferView" : 8,
            "componentType" : 5126,
            "count" : 736,
            "max" : [
                0.8954276442527771,
                2.7252755165100098,
                0.4650735855102539
            ],
            "min" : [
                -0.8954276442527771,
                2.5605506896972656,
                0.29445981979370117
            ],
            "type" : "VEC3"
        },
        {
            "bufferView" : 9,
            "componentType" : 5126,
            "count" : 736,
            "type" : "VEC2"
        },
        {
            "bufferView" : 10,
            "componentType" : 5126,
            "count" : 736,
            "type" : "VEC3"
        },
        {
            "bufferView" : 11,
            "componentType" : 5123,
            "count" : 4356,
            "type" : "SCALAR"
        },
        {
            "bufferView" : 12,
            "componentType" : 5126,
            "count" : 1115,
            "max" : [
                0.8422362804412842,
                1.3212189674377441,
                0.7695948481559753
            ],
            "min" : [
                -0.8422362804412842,
                0.6127094030380249,
                0.6499208807945251
            ],
            "type" : "VEC3"
        },
        {
            "bufferView" : 13,
            "componentType" : 5126,
            "count" : 1115,
            "type" : "VEC2"
        },
        {
            "bufferView" : 14,
            "componentType" : 5126,
            "count" : 1115,
            "type" : "VEC3"
        },
        {
            "bufferView" : 15,
            "componentType" : 5123,
            "count" : 6252,
            "type" : "SCALAR"
        },
        {
            "bufferView" : 16,
            "componentType" : 5126,
            "count" : 5656,
            "max" : [
                0.5888733863830566,
                0.05049309507012367,
                0.7508242130279541
            ],
            "min" : [
                -0.5788185000419617,
                -0.05059560388326645,
                -0.24256649613380432
            ],
            "type" : "VEC3"
        },
        {
            "bufferView" : 17,
            "componentType" : 5126,
            "count" : 5656,
            "type" : "VEC3"
        },
        {
            "bufferView" : 18,
            "componentType" : 5123,
            "count" : 33936,
            "type" : "SCALAR"
        },
        {
            "bufferView" : 19,
            "componentType" : 5126,
            "count" : 5656,
            "max" : [
                0.5888733863830566,
                0.05049309507012367,
                0.7508242130279541
            ],
            "min" : [
                -0.5788185000419617,
                -0.05059560388326645,
                -0.24256649613380432
            ],
            "type" : "VEC3"
        },
        {
            "bufferView" : 20,
            "componentType" : 5126,
            "count" : 5656,
            "type" : "VEC3"
        },
        {
            "bufferView" : 21,
            "componentType" : 5126,
            "count" : 2194,
            "max" : [
                0.1406763195991516,
                1.7304606437683105,
                0.758790135383606
            ],
            "min" : [
                -0.7288321256637573,
                1.3112194538116455,
                0.03735107183456421
            ],
            "type" : "VEC3"
        },
        {
            "bufferView" : 22,
            "componentType" : 5126,
            "count" : 2194,
            "type" : "VEC2"
        },
        {
            "bufferView" : 23,
            "componentType" : 5126,
            "count" : 2194,
            "type" : "VEC3"
        },
        {
            "bufferView" : 24,
            "componentType" : 5123,
            "count" : 13068,
            "type" : "SCALAR"
        },
        {
            "bufferView" : 25,
            "componentType" : 5126,
            "count" : 5230,
            "max" : [
                0.9690017700195312,
                2.8156237602233887,
                1.2820959091186523
            ],
            "min" : [
                -0.9690017700195312,
                0.19809074699878693,
                -2.282996892929077
            ],
            "type" : "VEC3"
        },
        {
            "bufferView" : 26,
            "componentType" : 5126,
            "count" : 5230,
            "type" : "VEC2"
        },
        {
            "bufferView" : 27,
            "componentType" : 5126,
            "count" : 5230,
            "type" : "VEC3"
        },
        {
            "bufferView" : 28,
            "componentType" : 5123,
            "count" : 29952,
            "type" : "SCALAR"
        },
        {
            "bufferView" : 29,
            "componentType" : 5126,
            "count" : 3125,
            "max" : [
                1,
                0.3720914125442505,
                1.282096028327942
            ],
            "min" : [
                -1,
                0.06297427415847778,
                -2.282996892929077
            ],
            "type" : "VEC3"
        },
        {
            "bufferView" : 30,
            "componentType" : 5126,
            "count" : 3125,
            "type" : "VEC2"
        },
        {
            "bufferView" : 31,
            "componentType" : 5126,
            "count" : 3125,
            "type" : "VEC3"
        },
        {
            "bufferView" : 32,
            "componentType" : 5123,
            "count" : 17664,
            "type" : "SCALAR"
        }
    ],
    "bufferViews" : [
        {
            "buffer" : 0,
            "byteLength" : 28008,
            "byteOffset" : 0,
            "target" : 34962
        },
        {
            "buffer" : 0,
            "byteLength" : 18672,
            "byteOffset" : 28008,
            "target" : 34962
        },
        {
            "buffer" : 0,
            "byteLength" : 28008,
            "byteOffset" : 46680,
            "target" : 34962
        },
        {
            "buffer" : 0,
            "byteLength" : 26160,
            "byteOffset" : 74688,
            "target" : 34963
        },
        {
            "buffer" : 0,
            "byteLength" : 177876,
            "byteOffset" : 100848,
            "target" : 34962
        },
        {
            "buffer" : 0,
            "byteLength" : 118584,
            "byteOffset" : 278724,
            "target" : 34962
        },
        {
            "buffer" : 0,
            "byteLength" : 177876,
            "byteOffset" : 397308,
            "target" : 34962
        },
        {
            "buffer" : 0,
            "byteLength" : 172032,
            "byteOffset" : 575184,
            "target" : 34963
        },
        {
            "buffer" : 0,
            "byteLength" : 8832,
            "byteOffset" : 747216,
            "target" : 34962
        },
        {
            "buffer" : 0,
            "byteLength" : 5888,
            "byteOffset" : 756048,
            "target" : 34962
        },
        {
            "buffer" : 0,
            "byteLength" : 8832,
            "byteOffset" : 761936,
            "target" : 34962
        },
        {
            "buffer" : 0,
            "byteLength" : 8712,
            "byteOffset" : 770768,
            "target" : 34963
        },
        {
            "buffer" : 0,
            "byteLength" : 13380,
            "byteOffset" : 779480,
            "target" : 34962
        },
        {
            "buffer" : 0,
            "byteLength" : 8920,
            "byteOffset" : 792860,
            "target" : 34962
        },
        {
            "buffer" : 0,
            "byteLength" : 13380,
            "byteOffset" : 801780,
            "target" : 34962
        },
        {
            "buffer" : 0,
            "byteLength" : 12504,
            "byteOffset" : 815160,
            "target" : 34963
        },
        {
            "buffer" : 0,
            "byteLength" : 67872,
            "byteOffset" : 827664,
            "target" : 34962
        },
        {
            "buffer" : 0,
            "byteLength" : 67872,
            "byteOffset" : 895536,
            "target" : 34962
        },
        {
            "buffer" : 0,
            "byteLength" : 67872,
            "byteOffset" : 963408,
            "target" : 34963
        },
        {
            "buffer" : 0,
            "byteLength" : 67872,
            "byteOffset" : 1031280,
            "target" : 34962
        },
        {
            "buffer" : 0,
            "byteLength" : 67872,
            "byteOffset" : 1099152,
            "target" : 34962
        },
        {
            "buffer" : 0,
            "byteLength" : 26328,
            "byteOffset" : 1167024,
            "target" : 34962
        },
        {
            "buffer" : 0,
            "byteLength" : 17552,
            "byteOffset" : 1193352,
            "target" : 34962
        },
        {
            "buffer" : 0,
            "byteLength" : 26328,
            "byteOffset" : 1210904,
            "target" : 34962
        },
        {
            "buffer" : 0,
            "byteLength" : 26136,
            "byteOffset" : 1237232,
            "target" : 34963
        },
        {
            "buffer" : 0,
            "byteLength" : 62760,
            "byteOffset" : 1263368,
            "target" : 34962
        },
        {
            "buffer" : 0,
            "byteLength" : 41840,
            "byteOffset" : 1326128,
            "target" : 34962
        },
        {
            "buffer" : 0,
            "byteLength" : 62760,
            "byteOffset" : 1367968,
            "target" : 34962
        },
        {
            "buffer" : 0,
            "byteLength" : 59904,
            "byteOffset" : 1430728,
            "target" : 34963
        },
        {
            "buffer" : 0,
            "byteLength" : 37500,
            "byteOffset" : 1490632,
            "target" : 34962
        },
        {
            "buffer" : 0,
            "byteLength" : 25000,
            "byteOffset" : 1528132,
            "target" : 34962
        },
        {
            "buffer" : 0,
            "byteLength" : 37500,
            "byteOffset" : 1553132,
            "target" : 34962
        },
        {
            "buffer" : 0,
            "byteLength" : 35328,
            "byteOffset" : 1590632,
            "target" : 34963
        }
    ],
    "buffers" : [
        {
            "byteLength" : 1625960,
            "uri" : "data:application/octet-stream;base64,"
        }
    ]
}
